<?xml version="1.0" encoding="UTF-8"?>
<!DOCTYPE svg PUBLIC "-//W3C//DTD SVG 1.1//EN" "http://www.w3.org/Graphics/SVG/1.1/DTD/svg11.dtd">
<!-- Creator: CorelDRAW 2021 (64-Bit) -->
<svg xmlns="http://www.w3.org/2000/svg" xml:space="preserve" width="214.4mm" height="215.9mm" version="1.1" style="shape-rendering:geometricPrecision; text-rendering:geometricPrecision; image-rendering:optimizeQuality; fill-rule:evenodd; clip-rule:evenodd"
viewBox="0 0 6370.33 6414.92"
 xmlns:xlink="http://www.w3.org/1999/xlink"
 xmlns:xodm="http://www.corel.com/coreldraw/odm/2003">
 <defs>
  <style type="text/css">
   <![CDATA[
    .fil0 {fill:white;fill-rule:nonzero}
   ]]>
  </style>
 </defs>
 <g id="Capa_x0020_1">
  <metadata id="CorelCorpID_0Corel-Layer"/>
  <g id="_2432919930448">
   <g>
    <g>
     <g>
      <polygon class="fil0" points="1872.88,487.33 1463.59,0 -0,1227.88 409.3,1715.21 "/>
      <polygon class="fil0" points="6370.33,1229.48 4906.74,1.6 4497.46,488.93 5961.05,1716.81 "/>
      <path class="fil0" d="M3183.58 681.62c-1584.61,0 -2865.05,1283.62 -2865.05,2866.65 0,1583.03 1280.44,2866.65 2865.05,2866.65 1584.61,0 2868.25,-1283.62 2868.25,-2866.65 0,-1583.03 -1283.63,-2866.65 -2868.25,-2866.65zm1.6 5096.27c-1231.06,0 -2229.61,-998.55 -2229.61,-2229.61 0,-1231.06 998.53,-2229.62 2229.61,-2229.62 1231.08,0 2229.61,998.55 2229.61,2229.61 0,1231.06 -996.95,2229.62 -2229.61,2229.62z"/>
      <polygon class="fil0" points="3344.42,1955.7 2866.65,1955.7 2866.65,3866.79 4378.01,4776.15 4618.5,4382.79 3344.42,3627.91 "/>
     </g>
    </g>
   </g>
   <g>
   </g>
   <g>
   </g>
   <g>
   </g>
   <g>
   </g>
   <g>
   </g>
   <g>
   </g>
   <g>
   </g>
   <g>
   </g>
   <g>
   </g>
   <g>
   </g>
   <g>
   </g>
   <g>
   </g>
   <g>
   </g>
   <g>
   </g>
   <g>
   </g>
  </g>
 </g>
</svg>
