<?xml version="1.0" encoding="UTF-8"?>
<!DOCTYPE svg PUBLIC "-//W3C//DTD SVG 1.1//EN" "http://www.w3.org/Graphics/SVG/1.1/DTD/svg11.dtd">
<!-- Creator: CorelDRAW 2021 (64-Bit) -->
<svg xmlns="http://www.w3.org/2000/svg" xml:space="preserve" width="215.9mm" height="215.9mm" version="1.1" style="shape-rendering:geometricPrecision; text-rendering:geometricPrecision; image-rendering:optimizeQuality; fill-rule:evenodd; clip-rule:evenodd"
viewBox="0 0 2913.2 2913.2"
 xmlns:xlink="http://www.w3.org/1999/xlink"
 xmlns:xodm="http://www.corel.com/coreldraw/odm/2003">
 <defs>
  <style type="text/css">
   <![CDATA[
    .fil0 {fill:white;fill-rule:nonzero}
   ]]>
  </style>
 </defs>
 <g id="Capa_x0020_1">
  <metadata id="CorelCorpID_0Corel-Layer"/>
  <path class="fil0" d="M1246.92 13.51c-257.25,37 -506.29,141.55 -717.73,315.99l454.6 454.6c163.28,-210.27 254.32,-476.92 263.13,-770.59l0 0zm209.68 1243.4l927.41 -927.41c-249.03,-205.57 -549.75,-314.23 -854.58,-329.5 -7.05,375.31 -126.28,718.31 -344.77,984.97l271.94 271.94zm-1127.1 -727.71c-174.44,211.44 -278.99,460.47 -315.99,717.73 293.67,-8.81 560.91,-99.85 770.59,-263.13l-454.6 -454.6zm1598.74 1199.35c266.06,-217.9 609.07,-337.13 984.97,-344.77 -15.27,-304.83 -123.93,-605.55 -329.5,-854.58l-927.41 927.41 271.94 271.94zm-471.63 -72.24l-927.41 927.41c249.03,204.98 549.75,314.23 854.58,329.5 7.64,-375.9 126.87,-718.9 344.77,-984.97l-271.94 -271.94zm1127.1 727.71c174.44,-211.44 278.99,-460.47 315.99,-717.73 -294.26,9.4 -560.91,100.43 -770.59,263.13l454.6 454.6 0 0zm-1598.74 -1199.35c-266.65,218.49 -609.66,338.31 -984.97,344.77 15.27,304.83 123.93,605.55 329.5,854.58l927.41 -927.41 -271.94 -271.94zm681.31 1715.03c257.25,-37 506.29,-141.55 717.73,-315.99l-454.6 -454.6c-162.69,209.68 -253.73,476.92 -263.13,770.59l-0 0z"/>
 </g>
</svg>
