<?xml version="1.0" encoding="UTF-8"?>
<!DOCTYPE svg PUBLIC "-//W3C//DTD SVG 1.1//EN" "http://www.w3.org/Graphics/SVG/1.1/DTD/svg11.dtd">
<!-- Creator: CorelDRAW 2021 (64-Bit) -->
<svg xmlns="http://www.w3.org/2000/svg" xml:space="preserve" width="188.238mm" height="188.912mm" version="1.1" style="shape-rendering:geometricPrecision; text-rendering:geometricPrecision; image-rendering:optimizeQuality; fill-rule:evenodd; clip-rule:evenodd"
viewBox="0 0 14523.35 14575.41"
 xmlns:xlink="http://www.w3.org/1999/xlink"
 xmlns:xodm="http://www.corel.com/coreldraw/odm/2003">
 <defs>
  <style type="text/css">
   <![CDATA[
    .fil0 {fill:white;fill-rule:nonzero}
   ]]>
  </style>
 </defs>
 <g id="Capa_x0020_1">
  <metadata id="CorelCorpID_0Corel-Layer"/>
  <path class="fil0" d="M13221.98 11452.1c832.88,-1197.26 1301.38,-2602.75 1301.38,-4164.4 0,-1405.48 -416.44,-2706.86 -1093.15,-3800.01 0,-52.06 -52.06,-52.06 -52.06,-104.11 -1301.38,-2030.15 -3539.75,-3383.58 -6142.5,-3383.58 -2602.75,0 -4893.16,1353.43 -6142.48,3435.63 0,52.06 -52.06,52.06 -52.06,104.11 -676.71,1093.15 -1041.1,2394.53 -1041.1,3800.01 0,1561.65 468.5,2967.14 1301.38,4164.4 0,0 52.06,52.06 52.06,52.06 1249.32,1821.92 3435.63,3019.19 5882.21,3019.19 2446.59,0 4580.84,-1197.26 5934.28,-3019.19 0,-52.06 0,-52.06 52.06,-104.11zm-780.82 -780.82l-1873.99 260.27 -728.77 -728.77 1041.1 -3019.19 1613.71 -780.82 1041.1 624.66c0,104.11 0,208.22 0,364.38 -52.06,1145.21 -416.45,2342.47 -1093.16,3279.47zm-52.06 -6871.26l-416.44 1561.65 -1665.76 832.88 -2550.7 -1769.87 0 -2030.15 1769.87 -884.94c0,0 0,0 0,0 1197.26,468.5 2186.31,1249.32 2863.03,2290.42zm-7495.92 -2290.42c0,0 0,0 0,0l1821.92 884.94 0 2030.15 -2550.7 1821.93 -1717.82 -832.88 -416.44 -1613.71c728.78,-1041.1 1717.82,-1821.92 2863.03,-2290.42zm-3904.13 5413.72l1041.1 -624.66 1613.71 832.88 1041.1 3019.19 -728.77 728.77 -1926.03 -208.22c-676.73,-989.04 -1041.11,-2134.25 -1041.11,-3383.57 0,-104.1 0,-260.26 0,-364.38zm4632.9 6402.76c0,0 0,0 0,0l-884.94 -1769.87 624.66 -624.66 3747.95 0 624.66 624.66 -884.94 1769.87c0,0 0,0 0,0 -520.55,156.17 -1041.1,208.22 -1613.71,208.22 -572.59,0 -1093.15,-104.12 -1613.71,-208.22z"/>
 </g>
</svg>
