<?xml version="1.0" encoding="UTF-8"?>
<!DOCTYPE svg PUBLIC "-//W3C//DTD SVG 1.1//EN" "http://www.w3.org/Graphics/SVG/1.1/DTD/svg11.dtd">
<!-- Creator: CorelDRAW 2021 (64-Bit) -->
<svg xmlns="http://www.w3.org/2000/svg" xml:space="preserve" width="188.913mm" height="188.913mm" version="1.1" style="shape-rendering:geometricPrecision; text-rendering:geometricPrecision; image-rendering:optimizeQuality; fill-rule:evenodd; clip-rule:evenodd"
viewBox="0 0 2243.41 2243.41"
 xmlns:xlink="http://www.w3.org/1999/xlink"
 xmlns:xodm="http://www.corel.com/coreldraw/odm/2003">
 <defs>
  <style type="text/css">
   <![CDATA[
    .fil0 {fill:white;fill-rule:nonzero}
   ]]>
  </style>
 </defs>
 <g id="Capa_x0020_1">
  <metadata id="CorelCorpID_0Corel-Layer"/>
  <g id="_2432918883472">
   <g>
    <path class="fil0" d="M1914.91 328.5c-200.3,224.34 -312.47,496.76 -312.47,793.21 0,296.45 112.17,568.86 312.47,793.21 208.32,-200.3 328.5,-480.73 328.5,-793.21 0,-312.47 -128.19,-592.9 -328.5,-793.21z"/>
    <path class="fil0" d="M1442.19 1121.71c0,-336.51 120.18,-648.99 344.52,-897.36 -184.28,-144.22 -416.63,-224.34 -665.01,-224.34 -248.38,0 -480.73,80.12 -665.01,224.34 224.34,248.38 344.52,560.85 344.52,897.36 0,336.51 -120.18,648.99 -344.52,897.36 184.28,144.22 416.63,224.34 665.01,224.34 248.38,0 480.73,-80.12 665.01,-224.34 -224.34,-248.38 -344.52,-560.85 -344.52,-897.36z"/>
    <path class="fil0" d="M328.5 1914.91c200.3,-224.34 312.47,-496.76 312.47,-793.21 0,-296.45 -112.17,-568.86 -312.47,-793.21 -200.3,200.3 -328.5,480.73 -328.5,793.21 0,312.47 128.19,592.9 328.5,793.21z"/>
   </g>
  </g>
 </g>
</svg>
