<?xml version="1.0" encoding="UTF-8"?>
<!DOCTYPE svg PUBLIC "-//W3C//DTD SVG 1.1//EN" "http://www.w3.org/Graphics/SVG/1.1/DTD/svg11.dtd">
<!-- Creator: CorelDRAW 2021 (64-Bit) -->
<svg xmlns="http://www.w3.org/2000/svg" xml:space="preserve" width="188.912mm" height="188.238mm" version="1.1" style="shape-rendering:geometricPrecision; text-rendering:geometricPrecision; image-rendering:optimizeQuality; fill-rule:evenodd; clip-rule:evenodd"
viewBox="0 0 2324.85 2316.54"
 xmlns:xlink="http://www.w3.org/1999/xlink"
 xmlns:xodm="http://www.corel.com/coreldraw/odm/2003">
 <defs>
  <style type="text/css">
   <![CDATA[
    .fil0 {fill:white;fill-rule:nonzero}
   ]]>
  </style>
 </defs>
 <g id="Capa_x0020_1">
  <metadata id="CorelCorpID_0Corel-Layer"/>
  <g id="_2432919508896">
   <g>
    <path class="fil0" d="M1743.63 1253.76c0,-16.61 0,-24.91 0,-41.51 0,-556.3 -332.12,-1046.18 -813.7,-1203.94 -83.03,16.61 -166.06,41.51 -240.79,74.73 315.51,249.09 506.48,622.73 523.09,1029.58 174.36,91.33 357.03,132.85 531.39,141.15z"/>
    <path class="fil0" d="M1145.82 1262.06c-157.76,99.64 -290.61,232.49 -381.94,390.24 8.3,8.3 24.91,16.61 33.21,16.61 489.88,282.3 1087.7,232.49 1461.33,-116.24 24.91,-74.73 49.82,-157.76 58.12,-240.79 -166.06,74.73 -348.73,107.94 -531.39,107.94 -224.18,0 -440.06,-49.82 -639.33,-157.76z"/>
    <path class="fil0" d="M1918 1212.24c0,8.3 0,24.91 0,33.21 141.15,-16.61 282.3,-58.12 406.85,-124.54 -16.61,-581.21 -464.97,-1062.79 -1037.88,-1120.91 373.64,249.09 631.03,705.76 631.03,1212.24z"/>
    <path class="fil0" d="M797.09 473.27c8.3,-8.3 16.61,-8.3 24.91,-16.61 -74.73,-107.94 -174.36,-207.57 -282.3,-282.3 -323.82,207.58 -539.7,572.91 -539.7,979.76 0,132.85 24.91,265.7 66.42,381.94 58.12,-423.45 315.52,-830.3 730.67,-1062.79z"/>
    <path class="fil0" d="M1461.33 2017.63c-257.39,0 -514.79,-66.42 -755.57,-207.58 -8.3,-8.3 -16.61,-8.3 -24.91,-16.61 -49.82,116.24 -83.03,240.79 -99.64,365.33 166.06,99.64 365.33,157.76 572.91,157.76 365.33,0 697.45,-174.36 905.03,-440.06 -174.36,91.33 -381.94,141.15 -597.82,141.15z"/>
    <path class="fil0" d="M1054.49 1120.91c-8.3,-182.67 -58.12,-365.33 -141.15,-523.09 -8.3,8.3 -24.91,8.3 -33.21,16.61 -464.97,265.7 -714.06,763.88 -647.64,1237.15 58.12,74.73 124.55,149.45 199.27,207.58 66.42,-381.94 290.61,-730.67 622.73,-938.24z"/>
   </g>
  </g>
 </g>
</svg>
